<?xml version="1.0" encoding="iso-8859-1"?>
<!-- Generator: Adobe Illustrator 20.1.0, SVG Export Plug-In . SVG Version: 6.00 Build 0)  -->
<svg xmlns="http://www.w3.org/2000/svg" xmlns:xlink="http://www.w3.org/1999/xlink" version="1.1" id="&#1057;&#1083;&#1086;&#1081;_1" x="0px" y="0px" viewBox="0 0 64 64" style="enable-background:new 0 0 64 64;" xml:space="preserve">
<linearGradient id="SVGID_1__52512" gradientUnits="userSpaceOnUse" x1="32" y1="11.6672" x2="32" y2="51.6262" spreadMethod="reflect">
	<stop offset="0" style="stop-color:#1A6DFF"/>
	<stop offset="1" style="stop-color:#C822FF"/>
</linearGradient>
<path style="fill:url(#SVGID_1__52512);" d="M55.995,52c-0.521,0-1.03-0.204-1.415-0.588L32.709,29.498  c-0.379-0.379-1.039-0.38-1.418,0.001L9.42,51.411c-0.576,0.574-1.435,0.745-2.182,0.437C6.486,51.536,6,50.808,6,49.994V37.22  c0-0.802,0.312-1.556,0.877-2.124l21.587-21.628C29.408,12.522,30.664,12,32,12s2.592,0.521,3.536,1.468l21.586,21.627  C57.688,35.665,58,36.418,58,37.22v12.773c0,0.814-0.486,1.542-1.238,1.854C56.514,51.95,56.253,52,55.995,52z M32,27.204  c0.803,0,1.557,0.313,2.125,0.881l21.871,21.914L56,49.994V37.22c0-0.27-0.104-0.522-0.295-0.714L34.12,14.88  c-1.133-1.135-3.107-1.135-4.24,0L8.294,36.507C8.104,36.698,8,36.951,8,37.22v12.773l21.875-21.908  C30.443,27.516,31.197,27.204,32,27.204z"/>
<linearGradient id="SVGID_2__52512" gradientUnits="userSpaceOnUse" x1="32" y1="18.0005" x2="32" y2="44.5042" spreadMethod="reflect">
	<stop offset="0" style="stop-color:#6DC7FF"/>
	<stop offset="1" style="stop-color:#E6ABFF"/>
</linearGradient>
<path style="fill:url(#SVGID_2__52512);" d="M29.88,19.291L10.291,38.889C10.105,39.076,10,39.329,10,39.593v5.228l20.586-20.576  c0.781-0.781,2.048-0.781,2.829,0L54,44.821v-5.225c0-0.265-0.105-0.52-0.293-0.708L34.12,19.291  C32.95,18.121,31.05,18.121,29.88,19.291z"/>
</svg>
